<svg width="105" height="67" viewBox="0 0 105 67" fill="none" xmlns="http://www.w3.org/2000/svg">
<path d="M89.861 61.2674L91.2171 52.2809H93.9836V64.938H92.1031V55.861L90.7289 64.938H88.8484L87.3657 55.9876V64.938H85.6299V52.2809H88.3964L89.861 61.2674Z" fill="white"/>
<path d="M80.322 62.0269C80.322 62.485 80.4124 62.8105 80.5932 63.0034C80.7861 63.1842 81.0392 63.2746 81.3526 63.2746C81.6661 63.2746 81.9132 63.1842 82.094 63.0034C82.2869 62.8105 82.3833 62.485 82.3833 62.0269V55.1921C82.3833 54.734 82.2869 54.4146 82.094 54.2338C81.9132 54.0409 81.6661 53.9445 81.3526 53.9445C81.0392 53.9445 80.7861 54.0409 80.5932 54.2338C80.4124 54.4146 80.322 54.734 80.322 55.1921V62.0269ZM78.333 55.3187C78.333 54.294 78.5922 53.5105 79.1105 52.9681C79.6289 52.4136 80.3762 52.1363 81.3526 52.1363C82.3291 52.1363 83.0764 52.4136 83.5948 52.9681C84.1131 53.5105 84.3723 54.294 84.3723 55.3187V61.9004C84.3723 62.925 84.1131 63.7146 83.5948 64.2691C83.0764 64.8115 82.3291 65.0827 81.3526 65.0827C80.3762 65.0827 79.6289 64.8115 79.1105 64.2691C78.5922 63.7146 78.333 62.925 78.333 61.9004V55.3187Z" fill="white"/>
<path d="M68.5732 63.1298C68.6817 63.1419 68.7962 63.1479 68.9168 63.1479C69.0373 63.1479 69.1519 63.1479 69.2603 63.1479C69.5738 63.1479 69.839 63.0696 70.0559 62.9129C70.285 62.7562 70.3995 62.4307 70.3995 61.9365V52.2809H76.6919V63.1298H77.7045V66.3845H75.6793V64.938H70.5984V66.3845H68.5732V63.1298ZM72.3885 61.7918C72.3885 62.3222 72.3342 62.7682 72.2257 63.1298H74.7029V54.089H72.3885V61.7918Z" fill="white"/>
<path d="M60.78 64.938H58.7368V52.2809H60.5088V59.8571L62.552 52.2809H65.0473V64.938H63.2572V55.7706L60.78 64.938ZM64.1071 50.093V51.5757H59.7313V50.093H64.1071Z" fill="white"/>
<path d="M53.4294 62.0269C53.4294 62.485 53.5198 62.8105 53.7006 63.0034C53.8935 63.1842 54.1466 63.2746 54.4601 63.2746C54.7735 63.2746 55.0206 63.1842 55.2014 63.0034C55.3943 62.8105 55.4907 62.485 55.4907 62.0269V55.1921C55.4907 54.734 55.3943 54.4146 55.2014 54.2338C55.0206 54.0409 54.7735 53.9445 54.4601 53.9445C54.1466 53.9445 53.8935 54.0409 53.7006 54.2338C53.5198 54.4146 53.4294 54.734 53.4294 55.1921V62.0269ZM51.4404 55.3187C51.4404 54.294 51.6996 53.5105 52.2179 52.9681C52.7363 52.4136 53.4837 52.1363 54.4601 52.1363C55.4365 52.1363 56.1838 52.4136 56.7022 52.9681C57.2205 53.5105 57.4797 54.294 57.4797 55.3187V61.9004C57.4797 62.925 57.2205 63.7146 56.7022 64.2691C56.1838 64.8115 55.4365 65.0827 54.4601 65.0827C53.4837 65.0827 52.7363 64.8115 52.2179 64.2691C51.6996 63.7146 51.4404 62.925 51.4404 61.9004V55.3187Z" fill="white"/>
<path d="M46.5604 63.1298H48.1696V52.2809H50.1767V64.938H40.9731V52.2809H42.944V63.1298H44.5714V52.2809H46.5604V63.1298Z" fill="white"/>
<path d="M37.104 63.1298C37.4174 63.1298 37.6585 63.0455 37.8273 62.8767C37.9961 62.7079 38.0804 62.3945 38.0804 61.9365V60.0379C38.0804 59.5798 37.9961 59.2664 37.8273 59.0976C37.6585 58.9289 37.4174 58.8445 37.104 58.8445H36.1638V63.1298H37.104ZM34.1748 64.938V52.2809H36.1638V57.0363H37.104C38.1045 57.0363 38.8459 57.3015 39.3281 57.8319C39.8223 58.3623 40.0694 59.1398 40.0694 60.1645V61.8099C40.0694 62.8345 39.8223 63.612 39.3281 64.1424C38.8459 64.6728 38.1045 64.938 37.104 64.938H34.1748Z" fill="white"/>
<path d="M30.739 54.089H28.4246V61.7918C28.4246 62.4307 28.3462 62.955 28.1895 63.3649C28.0328 63.7747 27.8219 64.1002 27.5567 64.3413C27.2915 64.5703 26.9841 64.7331 26.6345 64.8295C26.297 64.9259 25.9414 64.9742 25.5677 64.9742C25.3869 64.9742 25.2241 64.9742 25.0795 64.9742C24.9348 64.9742 24.7781 64.9621 24.6094 64.938V63.1298C24.7179 63.1419 24.8324 63.1479 24.9529 63.1479C25.0735 63.1479 25.188 63.1479 25.2965 63.1479C25.6099 63.1479 25.8751 63.0696 26.0921 62.9129C26.3211 62.7562 26.4356 62.4307 26.4356 61.9365V52.2809H32.728V64.938H30.739V54.089Z" fill="white"/>
<path d="M19.844 62.0269C19.844 62.485 19.9344 62.8105 20.1152 63.0034C20.3081 63.1842 20.5612 63.2746 20.8746 63.2746C21.188 63.2746 21.4351 63.1842 21.616 63.0034C21.8088 62.8105 21.9053 62.485 21.9053 62.0269V55.1921C21.9053 54.734 21.8088 54.4146 21.616 54.2338C21.4351 54.0409 21.188 53.9445 20.8746 53.9445C20.5612 53.9445 20.3081 54.0409 20.1152 54.2338C19.9344 54.4146 19.844 54.734 19.844 55.1921V62.0269ZM17.855 55.3187C17.855 54.294 18.1142 53.5105 18.6325 52.9681C19.1508 52.4136 19.8982 52.1363 20.8746 52.1363C21.851 52.1363 22.5984 52.4136 23.1167 52.9681C23.6351 53.5105 23.8942 54.294 23.8942 55.3187V61.9004C23.8942 62.925 23.6351 63.7146 23.1167 64.2691C22.5984 64.8115 21.851 65.0827 20.8746 65.0827C19.8982 65.0827 19.1508 64.8115 18.6325 64.2691C18.1142 63.7146 17.855 62.925 17.855 61.9004V55.3187Z" fill="white"/>
<path d="M12.9616 57.0363H13.9019C14.9024 57.0363 15.6437 57.3015 16.1259 57.8319C16.6202 58.3623 16.8673 59.1398 16.8673 60.1645V61.8099C16.8673 62.8345 16.6202 63.612 16.1259 64.1424C15.6437 64.6728 14.9024 64.938 13.9019 64.938H10.9727V52.2809H16.2344V54.089H12.9616V57.0363ZM13.9019 63.1298C14.2153 63.1298 14.4564 63.0455 14.6251 62.8767C14.7939 62.7079 14.8783 62.3945 14.8783 61.9365V60.0379C14.8783 59.5798 14.7939 59.2664 14.6251 59.0976C14.4564 58.9289 14.2153 58.8445 13.9019 58.8445H12.9616V63.1298H13.9019Z" fill="white"/>
<path d="M0.0126967 47.557C1.74608 45.4406 3.162 43.6275 4.65411 41.904C8.68597 37.2574 12.794 32.6798 16.7942 27.9919C17.8672 26.7372 18.9974 26.2202 20.5403 26.3374C22.0134 26.4546 23.5055 26.3649 25.0928 26.3649C25.3277 24.2002 25.0357 22.07 26.5341 20.1948C28.8326 17.3269 34.2614 16.7341 36.6805 18.0784C38.3631 19.016 39.0361 20.5533 39.3218 23.9521C42.2299 22.8214 45.0617 21.7529 47.8745 20.6154C48.9602 20.1811 49.9634 19.4365 51.0682 19.1401C51.8746 18.9263 52.8778 18.9953 53.6588 19.3193C57.5509 20.9049 61.405 22.6146 65.3925 24.3312C65.6401 23.042 65.7163 22.0562 66.0147 21.1531C67.0941 17.9405 69.4561 17.1063 72.3069 17.4441C76.542 17.9474 78.4532 19.2917 79.4437 22.4767C79.558 22.8352 79.6469 23.2144 79.6596 23.5867C79.7802 26.3925 79.7929 26.6131 82.2692 26.3374C85.5328 25.9789 87.8058 27.0474 89.7995 30.0256C91.7679 32.9625 94.4283 35.3478 96.7521 38.0089C99.4252 41.0767 102.06 44.179 105 47.5984C102.829 47.5984 100.968 47.4467 99.1268 47.626C94.4156 48.0879 90.2694 46.5436 86.1804 44.1307C78.4341 39.5531 70.5609 35.2375 62.7511 30.7771C59.7224 29.0467 56.7255 27.2543 53.754 25.4205C52.7064 24.7724 51.8682 24.7793 50.7825 25.4205C41.779 30.7564 32.7692 36.0785 23.7023 41.2835C20.026 43.3931 16.2164 45.2062 12.4512 47.1296C11.9813 47.3709 11.4353 47.5294 10.921 47.5294C7.4034 47.5639 3.88583 47.5501 0 47.5501L0.0126967 47.557ZM33.1756 22.7663C33.3915 23.3247 33.4677 23.8762 33.7661 24.1933C34.1661 24.6208 34.8265 25.2343 35.1947 25.1102C35.8932 24.8827 36.8329 24.3037 37.0043 23.6625C37.5757 21.484 36.3884 19.6709 34.2867 19.4641C33.0169 19.34 31.6708 19.4848 30.4263 19.8019C28.9533 20.1742 27.6008 21.0704 27.2834 22.8077C27.0929 23.8211 27.1945 25.0827 27.6135 25.9858C27.8675 26.5373 28.985 26.6131 30.039 27.0337C29.8168 25.7514 29.7088 25.1171 29.639 24.6828C30.5089 25.2688 31.366 26.3374 32.0899 26.2409C34.2423 25.9375 31.8676 23.8073 33.182 22.7732L33.1756 22.7663ZM74.9419 26.7028C77.3801 26.6821 77.9325 26.103 77.8436 23.8624C77.7293 21.1324 75.9833 19.7881 72.8847 19.4434C71.0752 19.2435 69.0878 19.0711 68.0719 21.2772C67.4751 22.5664 67.5322 24.0072 68.8275 24.7862C69.3291 25.0896 70.3386 24.9793 70.8212 24.607C71.3418 24.2071 71.5133 23.2833 71.8561 22.5319C72.7641 23.7315 70.7196 25.5652 72.8276 26.2271C74.5927 26.7786 74.1864 24.4622 75.4055 23.8486C75.2404 24.8896 75.107 25.71 74.9483 26.6959L74.9419 26.7028Z" fill="white"/>
<path d="M70.2751 15.8241C68.2941 15.7896 67.9005 15.2381 68.1925 13.4181C68.491 11.5498 68.783 9.65396 68.8465 7.76502C68.91 5.94501 68.6814 4.11121 68.5608 1.80862C65.2147 4.01469 63.7543 7.33759 62.04 10.4054C55.6652 6.7516 49.3793 6.45516 43.0172 10.4054C41.7028 7.18592 40.2869 3.91128 36.8329 2.07749C35.9566 6.07599 36.0201 9.90215 36.7884 13.618C37.2138 15.6586 36.5027 15.8241 35.055 15.9137C33.8296 11.1982 33.8613 6.45516 34.636 1.719C34.7249 1.17438 35.6074 0.464301 36.1789 0.395362C38.5472 0.105815 40.4393 1.52597 42.3441 2.78757C42.5918 2.95302 42.7822 3.21499 42.9918 3.4425C45.1633 5.8347 46.9704 6.44773 50.7063 5.60031C53.0152 5.23878 55.1064 5.73129 57.2271 6.33796C58.3827 6.66887 58.9796 6.73092 59.9002 5.81402C62.3003 3.42182 64.7639 1.11233 68.0782 0.154068C69.5069 -0.25957 70.3132 0.147178 70.3513 1.52597C70.472 5.7313 70.3958 9.9504 70.3894 14.1626C70.3894 14.6728 70.3259 15.176 70.2815 15.8379L70.2751 15.8241Z" fill="white"/>
<path d="M51.6717 34.2308V38.8084C50.3122 38.8084 48.8276 38.8084 47.1128 38.8084V34.2308H51.6717Z" fill="white"/>
<path d="M51.6717 40.2984V44.876C50.3122 44.876 48.8276 44.876 47.1128 44.876V40.2984H51.6717Z" fill="white"/>
<path d="M57.469 34.2308V38.8084C56.1096 38.8084 54.625 38.8084 52.9102 38.8084V34.2308H57.469Z" fill="white"/>
<path d="M57.469 40.2984V44.876C56.1096 44.876 54.625 44.876 52.9102 44.876V40.2984H57.469Z" fill="white"/>
<path d="M47.0744 16.913C47.0617 18.2987 46.9918 19.5879 45.5188 19.8154C44.6298 19.9533 43.3219 18.1263 43.5123 16.851C43.6774 15.741 43.8044 14.3553 45.36 14.3209C47.2077 14.2795 46.9855 15.7617 47.0744 16.913Z" fill="white"/>
<path d="M61.3988 16.81C61.4115 18.4094 61.0242 19.8847 59.7098 19.6158C58.9352 19.4572 58.0653 17.8923 57.8876 16.8306C57.7098 15.7552 58.205 14.3626 59.6844 14.335C61.4559 14.3074 61.3226 15.7828 61.3988 16.8031V16.81Z" fill="white"/>
</svg>
