<svg width="37" height="37" viewBox="0 0 37 37" fill="none" xmlns="http://www.w3.org/2000/svg">
<path d="M33.6447 11.3267V25.5887C33.6448 26.7417 33.1993 27.8512 32.3994 28.6901C31.5996 29.5291 30.5058 30.034 29.3419 30.1016L29.0737 30.1092H7.74239C6.57646 30.1092 5.45458 29.6687 4.60628 28.8777C3.75799 28.0867 3.24741 27.005 3.17901 25.8539L3.17139 25.5887V11.3267L17.5624 20.8151L17.7392 20.9146C17.9475 21.0152 18.1762 21.0675 18.408 21.0675C18.6399 21.0675 18.8686 21.0152 19.0769 20.9146L19.2537 20.8151L33.6447 11.3267Z" fill="white"/>
<path d="M29.0739 6C30.7195 6 32.1624 6.85889 32.9669 8.15023L18.4082 17.7487L3.84961 8.15023C4.23173 7.53669 4.75663 7.02238 5.38055 6.65018C6.00446 6.27798 6.70931 6.05867 7.43632 6.01055L7.74258 6H29.0739Z" fill="white"/>
</svg>
