<svg width="37" height="37" viewBox="0 0 37 37" fill="none" xmlns="http://www.w3.org/2000/svg">
<path d="M12.3332 4.625C13.104 4.625 16.1873 11.5625 16.1873 12.3333C16.1873 13.875 13.8748 15.4167 13.104 16.9583C12.3332 18.5 13.8748 20.0417 15.4165 21.5833C16.0178 22.1846 18.4998 24.6667 20.0415 23.8958C21.5832 23.125 23.1248 20.8125 24.6665 20.8125C25.4373 20.8125 32.3748 23.8958 32.3748 24.6667C32.3748 27.75 30.0623 30.0625 27.7498 30.8333C25.4373 31.6042 23.8957 31.6042 20.8123 30.8333C17.729 30.0625 15.4165 29.2917 11.5623 25.4375C7.70817 21.5833 6.93734 19.2708 6.1665 16.1875C5.39567 13.1042 5.39567 11.5625 6.1665 9.25C6.93734 6.9375 9.24984 4.625 12.3332 4.625Z" fill="white"/>
</svg>
